<svg width="375" height="58" viewBox="0 0 375 58" fill="none" xmlns="http://www.w3.org/2000/svg">
<path d="M31.82 23.16C34.22 23.92 36.1 25.2 37.46 27C38.82 28.76 39.5 30.94 39.5 33.54C39.5 37.22 38.06 40.06 35.18 42.06C32.34 44.02 28.18 45 22.7 45H0.98V3H21.5C26.62 3 30.54 3.98 33.26 5.94C36.02 7.9 37.4 10.56 37.4 13.92C37.4 15.96 36.9 17.78 35.9 19.38C34.94 20.98 33.58 22.24 31.82 23.16ZM10.64 10.32V20.22H20.3C22.7 20.22 24.52 19.8 25.76 18.96C27 18.12 27.62 16.88 27.62 15.24C27.62 13.6 27 12.38 25.76 11.58C24.52 10.74 22.7 10.32 20.3 10.32H10.64ZM21.98 37.68C24.54 37.68 26.46 37.26 27.74 36.42C29.06 35.58 29.72 34.28 29.72 32.52C29.72 29.04 27.14 27.3 21.98 27.3H10.64V37.68H21.98ZM78.7189 12.72V45H69.8389V41.16C68.5989 42.56 67.1189 43.64 65.3989 44.4C63.6789 45.12 61.8189 45.48 59.8189 45.48C55.5789 45.48 52.2189 44.26 49.7389 41.82C47.2589 39.38 46.0189 35.76 46.0189 30.96V12.72H55.3789V29.58C55.3789 34.78 57.5589 37.38 61.9189 37.38C64.1589 37.38 65.9589 36.66 67.3189 35.22C68.6789 33.74 69.3589 31.56 69.3589 28.68V12.72H78.7189ZM120.27 0.479997V45H111.33V41.28C109.01 44.08 105.65 45.48 101.25 45.48C98.2103 45.48 95.4503 44.8 92.9703 43.44C90.5303 42.08 88.6103 40.14 87.2103 37.62C85.8103 35.1 85.1103 32.18 85.1103 28.86C85.1103 25.54 85.8103 22.62 87.2103 20.1C88.6103 17.58 90.5303 15.64 92.9703 14.28C95.4503 12.92 98.2103 12.24 101.25 12.24C105.37 12.24 108.59 13.54 110.91 16.14V0.479997H120.27ZM102.87 37.8C105.23 37.8 107.19 37 108.75 35.4C110.31 33.76 111.09 31.58 111.09 28.86C111.09 26.14 110.31 23.98 108.75 22.38C107.19 20.74 105.23 19.92 102.87 19.92C100.47 19.92 98.4903 20.74 96.9303 22.38C95.3703 23.98 94.5903 26.14 94.5903 28.86C94.5903 31.58 95.3703 33.76 96.9303 35.4C98.4903 37 100.47 37.8 102.87 37.8ZM162.233 12.72V39.6C162.233 45.52 160.693 49.92 157.613 52.8C154.533 55.68 150.033 57.12 144.113 57.12C140.993 57.12 138.033 56.74 135.233 55.98C132.433 55.22 130.113 54.12 128.273 52.68L131.993 45.96C133.353 47.08 135.073 47.96 137.153 48.6C139.233 49.28 141.313 49.62 143.393 49.62C146.633 49.62 149.013 48.88 150.533 47.4C152.093 45.96 152.873 43.76 152.873 40.8V39.42C150.433 42.1 147.033 43.44 142.673 43.44C139.713 43.44 136.993 42.8 134.513 41.52C132.073 40.2 130.133 38.36 128.693 36C127.253 33.64 126.533 30.92 126.533 27.84C126.533 24.76 127.253 22.04 128.693 19.68C130.133 17.32 132.073 15.5 134.513 14.22C136.993 12.9 139.713 12.24 142.673 12.24C147.353 12.24 150.913 13.78 153.353 16.86V12.72H162.233ZM144.533 35.76C147.013 35.76 149.033 35.04 150.593 33.6C152.193 32.12 152.993 30.2 152.993 27.84C152.993 25.48 152.193 23.58 150.593 22.14C149.033 20.66 147.013 19.92 144.533 19.92C142.053 19.92 140.013 20.66 138.413 22.14C136.813 23.58 136.013 25.48 136.013 27.84C136.013 30.2 136.813 32.12 138.413 33.6C140.013 35.04 142.053 35.76 144.533 35.76ZM202.565 28.98C202.565 29.1 202.505 29.94 202.385 31.5H177.965C178.405 33.5 179.445 35.08 181.085 36.24C182.725 37.4 184.765 37.98 187.205 37.98C188.885 37.98 190.365 37.74 191.645 37.26C192.965 36.74 194.185 35.94 195.305 34.86L200.285 40.26C197.245 43.74 192.805 45.48 186.965 45.48C183.325 45.48 180.105 44.78 177.305 43.38C174.505 41.94 172.345 39.96 170.825 37.44C169.305 34.92 168.545 32.06 168.545 28.86C168.545 25.7 169.285 22.86 170.765 20.34C172.285 17.78 174.345 15.8 176.945 14.4C179.585 12.96 182.525 12.24 185.765 12.24C188.925 12.24 191.785 12.92 194.345 14.28C196.905 15.64 198.905 17.6 200.345 20.16C201.825 22.68 202.565 25.62 202.565 28.98ZM185.825 19.32C183.705 19.32 181.925 19.92 180.485 21.12C179.045 22.32 178.165 23.96 177.845 26.04H193.745C193.425 24 192.545 22.38 191.105 21.18C189.665 19.94 187.905 19.32 185.825 19.32ZM229.617 43.44C228.697 44.12 227.557 44.64 226.197 45C224.877 45.32 223.477 45.48 221.997 45.48C218.157 45.48 215.177 44.5 213.057 42.54C210.977 40.58 209.937 37.7 209.937 33.9V20.64H204.957V13.44H209.937V5.58H219.297V13.44H227.337V20.64H219.297V33.78C219.297 35.14 219.637 36.2 220.317 36.96C221.037 37.68 222.037 38.04 223.317 38.04C224.797 38.04 226.057 37.64 227.097 36.84L229.617 43.44ZM280.183 36H260.683L256.963 45H247.003L265.723 3H275.323L294.103 45H283.903L280.183 36ZM277.123 28.62L270.463 12.54L263.803 28.62H277.123ZM316.88 12.24C319.88 12.24 322.6 12.94 325.04 14.34C327.52 15.7 329.46 17.64 330.86 20.16C332.26 22.64 332.96 25.54 332.96 28.86C332.96 32.18 332.26 35.1 330.86 37.62C329.46 40.1 327.52 42.04 325.04 43.44C322.6 44.8 319.88 45.48 316.88 45.48C312.76 45.48 309.52 44.18 307.16 41.58V56.64H297.8V12.72H306.74V16.44C309.06 13.64 312.44 12.24 316.88 12.24ZM315.26 37.8C317.66 37.8 319.62 37 321.14 35.4C322.7 33.76 323.48 31.58 323.48 28.86C323.48 26.14 322.7 23.98 321.14 22.38C319.62 20.74 317.66 19.92 315.26 19.92C312.86 19.92 310.88 20.74 309.32 22.38C307.8 23.98 307.04 26.14 307.04 28.86C307.04 31.58 307.8 33.76 309.32 35.4C310.88 37 312.86 37.8 315.26 37.8ZM358.306 12.24C361.306 12.24 364.026 12.94 366.466 14.34C368.946 15.7 370.886 17.64 372.286 20.16C373.686 22.64 374.386 25.54 374.386 28.86C374.386 32.18 373.686 35.1 372.286 37.62C370.886 40.1 368.946 42.04 366.466 43.44C364.026 44.8 361.306 45.48 358.306 45.48C354.186 45.48 350.946 44.18 348.586 41.58V56.64H339.226V12.72H348.166V16.44C350.486 13.64 353.866 12.24 358.306 12.24ZM356.686 37.8C359.086 37.8 361.046 37 362.566 35.4C364.126 33.76 364.906 31.58 364.906 28.86C364.906 26.14 364.126 23.98 362.566 22.38C361.046 20.74 359.086 19.92 356.686 19.92C354.286 19.92 352.306 20.74 350.746 22.38C349.226 23.98 348.466 26.14 348.466 28.86C348.466 31.58 349.226 33.76 350.746 35.4C352.306 37 354.286 37.8 356.686 37.8Z" fill="url(#paint0_linear)"/>
<defs>
<linearGradient id="paint0_linear" x1="-16.9248" y1="8.49998" x2="419.981" y2="63.2694" gradientUnits="userSpaceOnUse">
<stop stop-color="#1E2841"/>
<stop offset="1" stop-color="#1E2841" stop-opacity="0"/>
</linearGradient>
</defs>
</svg>
