<svg width="55" height="55" viewBox="0 0 55 55" fill="none" xmlns="http://www.w3.org/2000/svg">
<circle cx="27.5" cy="27.5" r="27.5" fill="#1E2841"/>
<path d="M10.616 19.88H14.768L16.928 26.768C17.024 27.072 17.12 27.4 17.216 27.752C17.328 28.104 17.432 28.456 17.528 28.808C17.624 29.16 17.712 29.504 17.792 29.84C17.872 30.176 17.936 30.488 17.984 30.776H18.08C18.128 30.52 18.192 30.224 18.272 29.888C18.352 29.536 18.44 29.176 18.536 28.808C18.632 28.44 18.728 28.08 18.824 27.728C18.92 27.376 19.008 27.056 19.088 26.768L21.176 19.88H25.328L26.456 35H23.36C23.264 33.336 23.168 31.672 23.072 30.008C22.976 28.344 22.912 26.664 22.88 24.968L22.856 23H22.784C22.576 23.88 22.344 24.8 22.088 25.76C21.848 26.72 21.616 27.56 21.392 28.28L19.256 35H16.712L14.528 28.256C14.256 27.392 14 26.48 13.76 25.52C13.52 24.56 13.328 23.72 13.184 23H13.112C13.112 23.576 13.104 24.184 13.088 24.824C13.072 25.448 13.048 26.072 13.016 26.696C13 27.32 12.976 27.936 12.944 28.544C12.928 29.136 12.904 29.68 12.872 30.176L12.584 35H9.536L10.616 19.88ZM30.6082 19.88H34.7602L36.9202 26.768C37.0162 27.072 37.1122 27.4 37.2082 27.752C37.3202 28.104 37.4242 28.456 37.5202 28.808C37.6162 29.16 37.7042 29.504 37.7842 29.84C37.8642 30.176 37.9282 30.488 37.9762 30.776H38.0722C38.1202 30.52 38.1842 30.224 38.2642 29.888C38.3442 29.536 38.4322 29.176 38.5282 28.808C38.6242 28.44 38.7202 28.08 38.8162 27.728C38.9122 27.376 39.0002 27.056 39.0802 26.768L41.1682 19.88H45.3202L46.4482 35H43.3522C43.2562 33.336 43.1602 31.672 43.0642 30.008C42.9682 28.344 42.9042 26.664 42.8722 24.968L42.8482 23H42.7762C42.5682 23.88 42.3362 24.8 42.0802 25.76C41.8402 26.72 41.6082 27.56 41.3842 28.28L39.2482 35H36.7042L34.5202 28.256C34.2482 27.392 33.9922 26.48 33.7522 25.52C33.5122 24.56 33.3202 23.72 33.1762 23H33.1042C33.1042 23.576 33.0962 24.184 33.0802 24.824C33.0642 25.448 33.0402 26.072 33.0082 26.696C32.9922 27.32 32.9682 27.936 32.9362 28.544C32.9202 29.136 32.8962 29.68 32.8642 30.176L32.5762 35H29.5282L30.6082 19.88Z" fill="white"/>
<mask id="mask0" mask-type="alpha" maskUnits="userSpaceOnUse" x="9" y="19" width="38" height="16">
<path d="M10.616 19.88H14.768L16.928 26.768C17.024 27.072 17.12 27.4 17.216 27.752C17.328 28.104 17.432 28.456 17.528 28.808C17.624 29.16 17.712 29.504 17.792 29.84C17.872 30.176 17.936 30.488 17.984 30.776H18.08C18.128 30.52 18.192 30.224 18.272 29.888C18.352 29.536 18.44 29.176 18.536 28.808C18.632 28.44 18.728 28.08 18.824 27.728C18.92 27.376 19.008 27.056 19.088 26.768L21.176 19.88H25.328L26.456 35H23.36C23.264 33.336 23.168 31.672 23.072 30.008C22.976 28.344 22.912 26.664 22.88 24.968L22.856 23H22.784C22.576 23.88 22.344 24.8 22.088 25.76C21.848 26.72 21.616 27.56 21.392 28.28L19.256 35H16.712L14.528 28.256C14.256 27.392 14 26.48 13.76 25.52C13.52 24.56 13.328 23.72 13.184 23H13.112C13.112 23.576 13.104 24.184 13.088 24.824C13.072 25.448 13.048 26.072 13.016 26.696C13 27.32 12.976 27.936 12.944 28.544C12.928 29.136 12.904 29.68 12.872 30.176L12.584 35H9.536L10.616 19.88ZM30.6082 19.88H34.7602L36.9202 26.768C37.0162 27.072 37.1122 27.4 37.2082 27.752C37.3202 28.104 37.4242 28.456 37.5202 28.808C37.6162 29.16 37.7042 29.504 37.7842 29.84C37.8642 30.176 37.9282 30.488 37.9762 30.776H38.0722C38.1202 30.52 38.1842 30.224 38.2642 29.888C38.3442 29.536 38.4322 29.176 38.5282 28.808C38.6242 28.44 38.7202 28.08 38.8162 27.728C38.9122 27.376 39.0002 27.056 39.0802 26.768L41.1682 19.88H45.3202L46.4482 35H43.3522C43.2562 33.336 43.1602 31.672 43.0642 30.008C42.9682 28.344 42.9042 26.664 42.8722 24.968L42.8482 23H42.7762C42.5682 23.88 42.3362 24.8 42.0802 25.76C41.8402 26.72 41.6082 27.56 41.3842 28.28L39.2482 35H36.7042L34.5202 28.256C34.2482 27.392 33.9922 26.48 33.7522 25.52C33.5122 24.56 33.3202 23.72 33.1762 23H33.1042C33.1042 23.576 33.0962 24.184 33.0802 24.824C33.0642 25.448 33.0402 26.072 33.0082 26.696C32.9922 27.32 32.9682 27.936 32.9362 28.544C32.9202 29.136 32.8962 29.68 32.8642 30.176L32.5762 35H29.5282L30.6082 19.88Z" fill="white"/>
</mask>
<g mask="url(#mask0)">
<path d="M18.5 43C8.00006 42.0001 0.860134 21.2274 6.99993 16.7662C15.4932 10.5948 18.5763 32.4111 20.8443 42.4752L29.9681 40.4325C32.3188 37.2951 34.2125 33.3567 34 29.5328C33.4117 18.9425 28 10 35.5 5.99999C40.6389 3.25923 55.5 30.2755 52 35.5L29.9681 40.4325C26.7861 44.6793 22.7668 47.4586 22 46.5C21.6233 45.6762 21.2466 44.2606 20.8443 42.4752L18.5 43Z" fill="url(#paint0_linear)"/>
</g>
<defs>
<linearGradient id="paint0_linear" x1="9" y1="19.5" x2="50" y2="34" gradientUnits="userSpaceOnUse">
<stop offset="0.627454" stop-color="#E75757"/>
<stop offset="0.983163" stop-color="#E75757" stop-opacity="0.191128"/>
<stop offset="1" stop-color="#E75757" stop-opacity="0"/>
</linearGradient>
</defs>
</svg>
